<svg width="42" height="42" viewBox="0 0 42 42" fill="none" xmlns="http://www.w3.org/2000/svg">
<path d="M39.0525 20.7289C39.0525 30.7408 30.9359 38.8664 20.9149 38.8664C10.8939 38.8664 2.77734 30.7408 2.77734 20.7289C2.77734 10.7079 10.8939 2.59131 20.9149 2.59131C30.9359 2.59131 39.0525 10.7079 39.0525 20.7289Z" fill="white"/>
<path d="M29.416 16.1391C29.317 16.1968 26.9609 17.4153 26.9609 20.117C27.0719 23.1981 29.9342 24.2786 29.9833 24.2786C29.9342 24.3364 29.5511 25.7506 28.4165 27.233C27.5161 28.51 26.5167 29.7975 24.999 29.7975C23.5554 29.7975 23.0372 28.9464 21.3715 28.9464C19.5827 28.9464 19.0766 29.7975 17.707 29.7975C16.1893 29.7975 15.1159 28.441 14.1664 27.176C12.9328 25.5204 11.8843 22.9222 11.8473 20.4275C11.8223 19.1055 12.0943 17.806 12.7847 16.7022C13.7592 15.1613 15.4989 14.1153 17.3988 14.0808C18.8545 14.0351 20.15 15.0121 21.0384 15.0121C21.8897 15.0121 23.4814 14.0808 25.2823 14.0808C26.0596 14.0815 28.1325 14.2997 29.416 16.1391ZM20.9153 13.8168C20.6562 12.6096 21.3715 11.4024 22.0378 10.6323C22.8892 9.70096 24.2338 9.06885 25.3933 9.06885C25.4674 10.2761 24.9982 11.4601 24.1598 12.3224C23.4074 13.2537 22.1118 13.9548 20.9153 13.8168Z" fill="#1D3557"/>
</svg>
