<svg width="41" height="41" viewBox="0 0 41 41" fill="none" xmlns="http://www.w3.org/2000/svg">
<path d="M3.41992 20.5035C3.42088 24.5716 4.87281 28.5059 7.51473 31.5994C10.1567 34.6928 13.8153 36.7426 17.8331 37.3801V25.4406H13.4991V20.5035H17.8383V16.7452C17.7424 15.8655 17.8415 14.9756 18.1284 14.1385C18.4152 13.3015 18.8829 12.5379 19.4981 11.9019C20.1134 11.266 20.8611 10.7733 21.6882 10.4589C22.5153 10.1444 23.4015 10.016 24.2838 10.0827C25.565 10.1032 26.8463 10.2176 28.1105 10.4243V14.6251H25.9511C25.5841 14.577 25.211 14.6121 24.8594 14.7276C24.5077 14.8431 24.1865 15.0362 23.9195 15.2925C23.6525 15.5488 23.4465 15.8619 23.3168 16.2086C23.1871 16.5552 23.1369 16.9266 23.17 17.2952V20.5035H27.9038L27.147 25.4423H23.17V37.3801C26.3946 36.8705 29.4058 35.4475 31.8469 33.2797C34.2879 31.1119 36.0567 28.29 36.9438 25.1481C37.8309 22.0063 37.7992 18.676 36.8523 15.5516C35.9055 12.4272 34.0832 9.63956 31.6012 7.51869C29.1192 5.39781 26.0815 4.03254 22.8477 3.5845C19.6139 3.13646 16.3194 3.62443 13.3543 4.99063C10.3892 6.35682 7.87767 8.54404 6.11705 11.2933C4.35642 14.0426 3.42044 17.2388 3.41992 20.5035Z" fill="white"/>
</svg>
