<svg width="41" height="41" viewBox="0 0 41 41" fill="none" xmlns="http://www.w3.org/2000/svg">
<path d="M20.5 2.5625C10.5943 2.5625 2.5625 10.5943 2.5625 20.5C2.5625 30.4057 10.5943 38.4375 20.5 38.4375C30.4057 38.4375 38.4375 30.4057 38.4375 20.5C38.4375 10.5943 30.4057 2.5625 20.5 2.5625ZM27.1865 27.9312C25.5609 29.4287 23.3428 30.3096 20.6962 30.3096C16.8645 30.3096 13.5492 28.1114 11.9356 24.9083C11.271 23.583 10.8906 22.0855 10.8906 20.5C10.8906 18.9145 11.271 17.417 11.9356 16.0917C13.5492 12.8846 16.8645 10.6864 20.6962 10.6864C23.3388 10.6864 25.5569 11.6594 27.2586 13.2409L24.4479 16.0557C23.4309 15.0827 22.1376 14.5902 20.7002 14.5902C18.1457 14.5902 15.9836 16.3159 15.2108 18.6342C15.0146 19.2228 14.9025 19.8514 14.9025 20.5C14.9025 21.1486 15.0146 21.7772 15.2108 22.3658C15.9836 24.6841 18.1457 26.4098 20.6962 26.4098C22.0175 26.4098 23.1386 26.0614 24.0154 25.4729C25.0564 24.7762 25.7451 23.7392 25.9733 22.51H20.6962V18.7143H29.9332C30.0493 19.3589 30.1094 20.0275 30.1094 20.7202C30.1094 23.7111 29.0403 26.2216 27.1865 27.9312Z" fill="white"/>
</svg>
