<svg width="24" height="24" viewBox="0 0 24 24" fill="none" xmlns="http://www.w3.org/2000/svg">
<path fill-rule="evenodd" clip-rule="evenodd" d="M11.5665 1.33662H11.5665L11.5664 1.33662C11.3033 1.3365 11.0595 1.33639 10.8329 1.33675V1.3335C8.40786 1.33621 7.94269 1.35247 6.74237 1.40669C5.47374 1.46497 4.78494 1.67641 4.32628 1.85532C3.71907 2.09169 3.28535 2.37361 2.82995 2.82902C2.37454 3.28442 2.09208 3.71814 1.85625 4.32535C1.67815 4.78401 1.46617 5.47254 1.40816 6.74117C1.34581 8.11281 1.33334 8.52268 1.33334 11.9973C1.33334 15.472 1.34581 15.884 1.40816 17.2556C1.4659 18.5243 1.67815 19.2128 1.85625 19.6709C2.09262 20.2784 2.37454 20.711 2.82995 21.1664C3.28535 21.6218 3.71907 21.9038 4.32628 22.1396C4.78521 22.3177 5.47374 22.5297 6.74237 22.5882C8.11401 22.6506 8.52578 22.6641 12.0001 22.6641C15.4742 22.6641 15.8863 22.6506 17.2579 22.5882C18.5265 22.5302 19.2156 22.3188 19.6737 22.1399C20.2812 21.904 20.7136 21.6221 21.169 21.1667C21.6244 20.7116 21.9069 20.2792 22.1427 19.672C22.3208 19.2139 22.5328 18.5253 22.5908 17.2567C22.6531 15.8851 22.6667 15.473 22.6667 12.0006C22.6667 8.5281 22.6531 8.11606 22.5908 6.74442C22.533 5.47579 22.3208 4.78726 22.1427 4.32915C21.9063 3.72194 21.6244 3.28822 21.169 2.83281C20.7139 2.37741 20.2809 2.09549 19.6737 1.85965C19.2151 1.68156 18.5265 1.46958 17.2579 1.41157C15.886 1.34922 15.4742 1.33675 12.0001 1.33675L11.5665 1.33662ZM17.3842 5.05807C17.3842 4.19578 18.0836 3.49722 18.9456 3.49722V3.49667C19.8076 3.49667 20.507 4.19605 20.507 5.05807C20.507 5.92009 19.8076 6.61946 18.9456 6.61946C18.0836 6.61946 17.3842 5.92009 17.3842 5.05807ZM11.9999 5.32155C8.30985 5.3217 5.31815 8.3135 5.31815 12.0036C5.31815 15.6937 8.31 18.6842 12.0001 18.6842C15.6903 18.6842 18.6811 15.6937 18.6811 12.0036C18.6811 8.31341 15.69 5.32155 11.9999 5.32155ZM16.3373 12.0036C16.3373 9.60806 14.3954 7.66635 12.0001 7.66635C9.60466 7.66635 7.66295 9.60806 7.66295 12.0036C7.66295 14.3988 9.60466 16.3408 12.0001 16.3408C14.3954 16.3408 16.3373 14.3988 16.3373 12.0036Z" fill="white"/>
<mask id="mask0_590_5555" style="mask-type:alpha" maskUnits="userSpaceOnUse" x="1" y="1" width="22" height="22">
<path fill-rule="evenodd" clip-rule="evenodd" d="M11.5665 1.33662H11.5665L11.5664 1.33662C11.3033 1.3365 11.0595 1.33639 10.8329 1.33675V1.3335C8.40786 1.33621 7.94269 1.35247 6.74237 1.40669C5.47374 1.46497 4.78494 1.67641 4.32628 1.85532C3.71907 2.09169 3.28535 2.37361 2.82995 2.82902C2.37454 3.28442 2.09208 3.71814 1.85625 4.32535C1.67815 4.78401 1.46617 5.47254 1.40816 6.74117C1.34581 8.11281 1.33334 8.52268 1.33334 11.9973C1.33334 15.472 1.34581 15.884 1.40816 17.2556C1.4659 18.5243 1.67815 19.2128 1.85625 19.6709C2.09262 20.2784 2.37454 20.711 2.82995 21.1664C3.28535 21.6218 3.71907 21.9038 4.32628 22.1396C4.78521 22.3177 5.47374 22.5297 6.74237 22.5882C8.11401 22.6506 8.52578 22.6641 12.0001 22.6641C15.4742 22.6641 15.8863 22.6506 17.2579 22.5882C18.5265 22.5302 19.2156 22.3188 19.6737 22.1399C20.2812 21.904 20.7136 21.6221 21.169 21.1667C21.6244 20.7116 21.9069 20.2792 22.1427 19.672C22.3208 19.2139 22.5328 18.5253 22.5908 17.2567C22.6531 15.8851 22.6667 15.473 22.6667 12.0006C22.6667 8.5281 22.6531 8.11606 22.5908 6.74442C22.533 5.47579 22.3208 4.78726 22.1427 4.32915C21.9063 3.72194 21.6244 3.28822 21.169 2.83281C20.7139 2.37741 20.2809 2.09549 19.6737 1.85965C19.2151 1.68156 18.5265 1.46958 17.2579 1.41157C15.886 1.34922 15.4742 1.33675 12.0001 1.33675L11.5665 1.33662ZM17.3842 5.05807C17.3842 4.19578 18.0836 3.49722 18.9456 3.49722V3.49667C19.8076 3.49667 20.507 4.19605 20.507 5.05807C20.507 5.92009 19.8076 6.61946 18.9456 6.61946C18.0836 6.61946 17.3842 5.92009 17.3842 5.05807ZM11.9999 5.32155C8.30985 5.3217 5.31815 8.3135 5.31815 12.0036C5.31815 15.6937 8.31 18.6842 12.0001 18.6842C15.6903 18.6842 18.6811 15.6937 18.6811 12.0036C18.6811 8.31341 15.69 5.32155 11.9999 5.32155ZM16.3373 12.0036C16.3373 9.60806 14.3954 7.66635 12.0001 7.66635C9.60466 7.66635 7.66295 9.60806 7.66295 12.0036C7.66295 14.3988 9.60466 16.3408 12.0001 16.3408C14.3954 16.3408 16.3373 14.3988 16.3373 12.0036Z" fill="white"/>
</mask>
<g mask="url(#mask0_590_5555)">
</g>
</svg>
