<svg width="24" height="24" viewBox="0 0 24 24" fill="none" xmlns="http://www.w3.org/2000/svg">
<path fill-rule="evenodd" clip-rule="evenodd" d="M6.47745 3.70657C6.44777 2.3595 5.48448 1.3335 3.92023 1.3335C2.35599 1.3335 1.33334 2.3595 1.33334 3.70657C1.33334 5.02573 2.32577 6.08128 3.86088 6.08128H3.8901C5.48448 6.08128 6.47745 5.02573 6.47745 3.70657ZM6.17629 7.95648H1.60373V21.6951H6.17629V7.95648ZM17.4019 7.63387C20.4109 7.63387 22.6667 9.59789 22.6667 13.8178L22.6665 21.6951H18.0941V14.3449C18.0941 12.4987 17.4324 11.2389 15.7772 11.2389C14.5139 11.2389 13.7614 12.0882 13.431 12.9085C13.3101 13.2025 13.2804 13.6121 13.2804 14.0227V21.6955H8.70729C8.70729 21.6955 8.76756 9.24601 8.70729 7.95684H13.2804V9.90281C13.8873 8.96735 14.9742 7.63387 17.4019 7.63387Z" fill="white"/>
<mask id="mask0_590_5554" style="mask-type:alpha" maskUnits="userSpaceOnUse" x="1" y="1" width="22" height="21">
<path fill-rule="evenodd" clip-rule="evenodd" d="M6.47745 3.70657C6.44777 2.3595 5.48448 1.3335 3.92023 1.3335C2.35599 1.3335 1.33334 2.3595 1.33334 3.70657C1.33334 5.02573 2.32577 6.08128 3.86088 6.08128H3.8901C5.48448 6.08128 6.47745 5.02573 6.47745 3.70657ZM6.17629 7.95648H1.60373V21.6951H6.17629V7.95648ZM17.4019 7.63387C20.4109 7.63387 22.6667 9.59789 22.6667 13.8178L22.6665 21.6951H18.0941V14.3449C18.0941 12.4987 17.4324 11.2389 15.7772 11.2389C14.5139 11.2389 13.7614 12.0882 13.431 12.9085C13.3101 13.2025 13.2804 13.6121 13.2804 14.0227V21.6955H8.70729C8.70729 21.6955 8.76756 9.24601 8.70729 7.95684H13.2804V9.90281C13.8873 8.96735 14.9742 7.63387 17.4019 7.63387Z" fill="white"/>
</mask>
<g mask="url(#mask0_590_5554)">
</g>
</svg>
