<svg width="17" height="13" viewBox="0 0 17 13" fill="none" xmlns="http://www.w3.org/2000/svg">
<path d="M1.49414 0.67627H15.5059C16.3297 0.67627 17 1.34654 17 2.17041V10.8292C17 11.6531 16.3297 12.3233 15.5059 12.3233H1.49414C0.670271 12.3233 0 11.6531 0 10.8292V2.17041C0 1.34654 0.670271 0.67627 1.49414 0.67627ZM1.68914 1.67236L1.88856 1.83841L7.90719 6.85013C8.25071 7.13614 8.74936 7.13614 9.09281 6.85013L15.1114 1.83841L15.3109 1.67236H1.68914ZM16.0039 2.39148L11.1001 6.4749L16.0039 9.73853V2.39148ZM1.49414 11.3272H15.5059C15.7465 11.3272 15.9478 11.1556 15.9939 10.9284L10.3014 7.13992L9.73018 7.61559C9.37377 7.91236 8.93685 8.06074 8.49997 8.06074C8.06308 8.06074 7.62619 7.91236 7.26976 7.61559L6.69853 7.13992L1.00605 10.9284C1.05221 11.1557 1.25348 11.3272 1.49414 11.3272ZM0.996094 9.73853L5.89993 6.47493L0.996094 2.39148V9.73853Z" fill="white"/>
</svg>
