<svg width="24" height="24" viewBox="0 0 24 24" fill="none" xmlns="http://www.w3.org/2000/svg">
<path fill-rule="evenodd" clip-rule="evenodd" d="M11.6919 7.35628L11.7381 8.11881L10.9674 8.02544C8.16197 7.66752 5.71106 6.45369 3.63011 4.41508L2.61275 3.40355L2.3507 4.15052C1.79578 5.81565 2.15031 7.57415 3.3064 8.75685C3.92298 9.41045 3.78425 9.50382 2.72065 9.11478C2.3507 8.99028 2.027 8.89691 1.99617 8.9436C1.88827 9.05253 2.25821 10.4687 2.55109 11.0289C2.95187 11.807 3.76884 12.5695 4.66288 13.0208L5.41819 13.3787L4.52415 13.3943C3.66093 13.3943 3.63011 13.4099 3.72259 13.7367C4.03088 14.7482 5.24863 15.822 6.60511 16.2888L7.5608 16.6156L6.72842 17.1136C5.49526 17.8295 4.0463 18.2341 2.59733 18.2652C1.90368 18.2807 1.33334 18.343 1.33334 18.3897C1.33334 18.5453 3.21391 19.4168 4.30834 19.7591C7.59163 20.7707 11.4915 20.3349 14.4203 18.6075C16.5012 17.3782 18.5822 14.9349 19.5533 12.5695C20.0774 11.309 20.6015 9.00584 20.6015 7.90095C20.6015 7.1851 20.6477 7.09173 21.5109 6.23582C22.0196 5.73784 22.4975 5.19317 22.59 5.03755C22.7441 4.74188 22.7287 4.74188 21.9425 5.00643C20.6323 5.47329 20.4473 5.41104 21.0947 4.71075C21.5726 4.21277 22.1429 3.31018 22.1429 3.04563C22.1429 2.99894 21.9117 3.07675 21.6497 3.21681C21.3722 3.37243 20.7556 3.60586 20.2932 3.74591L19.4608 4.01047L18.7055 3.49692C18.2893 3.21681 17.7036 2.90557 17.3953 2.8122C16.6091 2.59433 15.4068 2.62546 14.6977 2.87445C12.7709 3.57473 11.5532 5.37992 11.6919 7.35628Z" fill="white"/>
<mask id="mask0_590_5553" style="mask-type:alpha" maskUnits="userSpaceOnUse" x="1" y="2" width="22" height="19">
<path fill-rule="evenodd" clip-rule="evenodd" d="M11.6919 7.35628L11.7381 8.11881L10.9674 8.02544C8.16197 7.66752 5.71106 6.45369 3.63011 4.41508L2.61275 3.40355L2.3507 4.15052C1.79578 5.81565 2.15031 7.57415 3.3064 8.75685C3.92298 9.41045 3.78425 9.50382 2.72065 9.11478C2.3507 8.99028 2.027 8.89691 1.99617 8.9436C1.88827 9.05253 2.25821 10.4687 2.55109 11.0289C2.95187 11.807 3.76884 12.5695 4.66288 13.0208L5.41819 13.3787L4.52415 13.3943C3.66093 13.3943 3.63011 13.4099 3.72259 13.7367C4.03088 14.7482 5.24863 15.822 6.60511 16.2888L7.5608 16.6156L6.72842 17.1136C5.49526 17.8295 4.0463 18.2341 2.59733 18.2652C1.90368 18.2807 1.33334 18.343 1.33334 18.3897C1.33334 18.5453 3.21391 19.4168 4.30834 19.7591C7.59163 20.7707 11.4915 20.3349 14.4203 18.6075C16.5012 17.3782 18.5822 14.9349 19.5533 12.5695C20.0774 11.309 20.6015 9.00584 20.6015 7.90095C20.6015 7.1851 20.6477 7.09173 21.5109 6.23582C22.0196 5.73784 22.4975 5.19317 22.59 5.03755C22.7441 4.74188 22.7287 4.74188 21.9425 5.00643C20.6323 5.47329 20.4473 5.41104 21.0947 4.71075C21.5726 4.21277 22.1429 3.31018 22.1429 3.04563C22.1429 2.99894 21.9117 3.07675 21.6497 3.21681C21.3722 3.37243 20.7556 3.60586 20.2932 3.74591L19.4608 4.01047L18.7055 3.49692C18.2893 3.21681 17.7036 2.90557 17.3953 2.8122C16.6091 2.59433 15.4068 2.62546 14.6977 2.87445C12.7709 3.57473 11.5532 5.37992 11.6919 7.35628Z" fill="white"/>
</mask>
<g mask="url(#mask0_590_5553)">
</g>
</svg>
