<svg width="24" height="24" viewBox="0 0 24 24" fill="none" xmlns="http://www.w3.org/2000/svg">
<path fill-rule="evenodd" clip-rule="evenodd" d="M8.11502 1.5H9.64802L8.49302 4.965C8.43702 5.133 8.36702 5.3255 8.28302 5.5425C8.19902 5.7595 8.12552 5.9555 8.06252 6.1305C7.99952 6.3055 7.94702 6.498 7.90502 6.708V10.404H6.39302V6.876C6.36502 6.708 6.16202 6.113 5.78402 5.091L4.58702 1.5H6.12002L7.08602 5.049H7.19102L8.11502 1.5ZM13.47 5.364V8.766C13.47 9.354 13.295 9.802 12.945 10.11C12.595 10.418 12.119 10.572 11.517 10.572C10.943 10.572 10.4775 10.4075 10.1205 10.0785C9.76352 9.7495 9.58502 9.305 9.58502 8.745V5.343C9.58502 4.797 9.77752 4.3805 10.1625 4.0935C10.5475 3.8065 11.02 3.663 11.58 3.663C12.112 3.663 12.56 3.817 12.924 4.125C13.288 4.433 13.47 4.846 13.47 5.364ZM18.447 3.831V10.404H17.103V9.669C16.585 10.215 16.067 10.488 15.549 10.488C14.919 10.488 14.604 10.096 14.604 9.312V3.831H15.948V8.871C15.948 9.165 16.067 9.312 16.305 9.312C16.543 9.312 16.809 9.144 17.103 8.808V3.831H18.447ZM12.105 5.28V8.871C12.105 9.235 11.909 9.417 11.517 9.417C11.153 9.417 10.971 9.235 10.971 8.871V5.28C10.971 5.14 11.027 5.0245 11.139 4.9335C11.251 4.8425 11.377 4.797 11.517 4.797C11.657 4.797 11.79 4.8425 11.916 4.9335C12.042 5.0245 12.105 5.14 12.105 5.28ZM20.82 20.064C20.904 18.72 20.946 17.705 20.946 17.019C20.946 16.333 20.904 15.318 20.82 13.974C20.764 13.274 20.4945 12.7175 20.0115 12.3045C19.5285 11.8915 18.937 11.671 18.237 11.643C16.865 11.573 14.786 11.538 12 11.538C9.21402 11.538 7.13502 11.573 5.76302 11.643C5.06302 11.671 4.47152 11.8915 3.98852 12.3045C3.50552 12.7175 3.23602 13.274 3.18002 13.974C3.09602 15.318 3.05402 16.333 3.05402 17.019C3.05402 17.705 3.09602 18.72 3.18002 20.064C3.23602 20.764 3.50552 21.3205 3.98852 21.7335C4.47152 22.1465 5.06302 22.367 5.76302 22.395C7.13502 22.465 9.21402 22.5 12 22.5C14.772 22.5 16.851 22.465 18.237 22.395C18.937 22.367 19.5285 22.1465 20.0115 21.7335C20.4945 21.3205 20.764 20.764 20.82 20.064ZM19.455 18.93V18.531H18.342C18.342 18.559 18.3455 18.65 18.3525 18.804C18.3595 18.958 18.3595 19.0665 18.3525 19.1295C18.3455 19.1925 18.328 19.273 18.3 19.371C18.272 19.469 18.223 19.539 18.153 19.581C18.083 19.623 17.985 19.644 17.859 19.644C17.719 19.644 17.6105 19.602 17.5335 19.518C17.4565 19.434 17.4145 19.35 17.4075 19.266C17.4005 19.182 17.397 19.063 17.397 18.909V17.901H19.455V16.557C19.455 16.067 19.322 15.682 19.056 15.402C18.79 15.122 18.412 14.982 17.922 14.982C17.446 14.982 17.0505 15.1255 16.7355 15.4125C16.4205 15.6995 16.263 16.081 16.263 16.557V18.93C16.263 19.434 16.3995 19.8365 16.6725 20.1375C16.9455 20.4385 17.334 20.589 17.838 20.589C18.916 20.589 19.455 20.036 19.455 18.93ZM15.444 16.389V19.329C15.444 20.113 15.115 20.505 14.457 20.505C14.079 20.505 13.736 20.344 13.428 20.022V20.442H12.336V13.239H13.428V15.549C13.722 15.227 14.044 15.066 14.394 15.066C15.094 15.066 15.444 15.507 15.444 16.389ZM10.194 20.442H11.265V15.129H10.194V19.161C9.95602 19.427 9.73902 19.56 9.54302 19.56C9.36102 19.56 9.27002 19.441 9.27002 19.203V15.129H8.17802V19.602C8.17802 20.218 8.43002 20.526 8.93402 20.526C9.35402 20.526 9.77402 20.302 10.194 19.854V20.442ZM8.19902 14.289H6.91802V20.442H5.70002V14.289H4.44002V13.239H8.19902V14.289ZM18.342 16.494V17.082H17.397V16.494C17.397 16.116 17.558 15.927 17.88 15.927C18.188 15.927 18.342 16.116 18.342 16.494ZM14.331 19.224V16.431C14.331 16.081 14.184 15.906 13.89 15.906C13.722 15.906 13.568 15.976 13.428 16.116V19.434C13.582 19.588 13.757 19.665 13.953 19.665C14.205 19.665 14.331 19.518 14.331 19.224Z" fill="white"/>
</svg>
